<?xml version="1.0" encoding="UTF-8"?>
<svg viewBox="0 0 512 512" xmlns="http://www.w3.org/2000/svg">
  <!-- Background Circle -->
  <circle cx="256" cy="256" r="248" fill="#ffffff" stroke="#4CAF50" stroke-width="16"/>
  
  <!-- Dustbin Body -->
  <path d="M160 180 L180 400 H332 L352 180 Z" fill="#4CAF50" />
  
  <!-- Dustbin Lid -->
  <path d="M140 180 L372 180 L372 160 C372 150 362 140 352 140 H160 C150 140 140 150 140 160 Z" fill="#388E3C" />
  
  <!-- Smart Elements: Wireless Signal -->
  <path d="M232 240 A70 70 0 0 1 280 240" fill="none" stroke="#ffffff" stroke-width="10" stroke-linecap="round" />
  <path d="M242 260 A40 40 0 0 1 270 260" fill="none" stroke="#ffffff" stroke-width="10" stroke-linecap="round" />
  <circle cx="256" cy="290" r="12" fill="#ffffff" />
  
  <!-- Recycle Symbol -->
  <g transform="translate(256, 340) scale(0.8)" fill="#ffffff">
    <path d="M0 -30 L-10 -10 L10 -10 Z" />
    <path d="M26 15 L16 -5 L6 15 Z" transform="rotate(120)" />
    <path d="M-26 15 L-16 -5 L-6 15 Z" transform="rotate(240)" />
    <path d="M0 0 L0 -22 L-20 10 L20 10 Z" fill="none" stroke="#ffffff" stroke-width="5" stroke-linejoin="round" />
  </g>
</svg>